<svg width="40" height="40" viewBox="0 0 40 40" fill="none" xmlns="http://www.w3.org/2000/svg">
<rect width="40" height="40" rx="20" fill="#E2DFF6"/>
<circle cx="5.02816" cy="5.02816" r="5.02816" transform="matrix(-1 0 0 1 25.0276 8.23535)" stroke="#787486" stroke-width="2.5"/>
<path d="M11.2014 27.064C11.2014 25.6342 12.1003 24.3587 13.4468 23.8778L18.319 22.1377C19.4065 21.7493 20.5949 21.7493 21.6824 22.1377L26.5546 23.8778C27.9012 24.3587 28.8 25.6342 28.8 27.064V27.064C28.8 29.1229 26.9764 30.7044 24.9382 30.4132L20.7078 29.8089C20.2388 29.7419 19.7626 29.7419 19.2936 29.8089L15.0632 30.4132C13.025 30.7044 11.2014 29.1229 11.2014 27.064V27.064Z" stroke="#787486" stroke-width="2.5"/>
</svg>
