<svg width="60" height="60" viewBox="0 0 60 60" fill="none" xmlns="http://www.w3.org/2000/svg">
<rect width="60" height="60" rx="30" fill="#E2DFF6"/>
<circle cx="7.56602" cy="7.56602" r="7.56602" transform="matrix(-1 0 0 1 37.3625 12.5)" stroke="#787486" stroke-width="4"/>
<path d="M16.5581 41.6211C16.5581 39.4696 17.9106 37.5504 19.9368 36.8268L27.108 34.2656C28.8479 33.6442 30.7494 33.6442 32.4893 34.2656L39.6605 36.8268C41.6867 37.5504 43.0392 39.4696 43.0392 41.6211V41.6211C43.0392 44.7192 40.2952 47.099 37.2283 46.6609L30.93 45.7611C30.1796 45.6539 29.4177 45.6539 28.6673 45.7611L22.369 46.6609C19.302 47.099 16.5581 44.7192 16.5581 41.6211V41.6211Z" stroke="#787486" stroke-width="4"/>
</svg>
