<!-- icon666.com - MILLIONS OF FREE VECTOR ICONS --><svg version="1.1" id="Capa_1" xmlns="http://www.w3.org/2000/svg" xmlns:xlink="http://www.w3.org/1999/xlink" x="0px" y="0px" viewBox="0 0 409.6 409.6" style="enable-background:new 0 0 409.6 409.6;" xml:space="preserve"><g><g><path d="M385.407,175.506c1.611-1.141,3.219-2.427,4.797-3.903c12.87-12.035,19.395-31.533,19.395-57.95 c0-32.945-17.455-62.775-49.153-83.997C332.302,10.81,294.932,0,257.92,0H151.68C114.667,0,77.298,10.81,49.152,29.655 C17.455,50.878,0,80.707,0,113.652c0,26.418,6.525,45.915,19.395,57.95c1.576,1.474,3.181,2.752,4.788,3.891 C11.275,179.857,0,191.003,0,204.893v13.265c0,13.39,8.745,24.803,20.968,29.225c-11.338,11.63-11.626,26.712-9.656,34.333 c0.585,2.26,2.622,3.837,4.957,3.837c6.708,0,11.151,0.999,14.973,2.458v33.724c-5.253,1.627-9.972,4.677-13.563,8.94 c-5.27,6.258-7.502,14.42-6.125,22.398l3.242,18.782c3.773,21.87,23.118,37.745,45.995,37.745h288.015 c22.878,0,42.223-15.875,45.995-37.745l3.243-18.783c1.378-7.978-0.855-16.14-6.125-22.397c-3.324-3.948-7.619-6.857-12.405-8.56 v-34.511c3.573-1.228,7.764-2.051,13.815-2.051c2.53,0,4.68-1.848,5.063-4.348c0.131-0.857,2.556-18.386-10.185-33.672 c12.445-4.308,21.393-15.832,21.393-29.376v-13.265C409.6,191.017,398.324,179.878,385.407,175.506z M10.24,113.652 c0-63.875,73.418-103.412,141.44-103.412h106.24c68.022,0,141.44,39.537,141.44,103.412c0,23.353-5.383,40.285-15.997,50.328 c-9.223,8.729-19.592,9.478-22.547,9.505h-0.23c-0.268-0.002-0.524-0.007-0.585-0.01c-0.105-0.007-0.212-0.01-0.32-0.01 l-310.075,0.01c-0.047,0.003-0.292,0.008-0.541,0.01h-0.245c-2.899-0.022-13.322-0.745-22.582-9.505 C15.623,153.938,10.24,137.005,10.24,113.652z M384.087,337.27c3.367,4,4.742,8.995,3.867,14.062l-3.242,18.783 c-2.925,16.945-18.025,29.245-35.905,29.245H60.793c-17.88,0-32.98-12.3-35.905-29.245l-3.242-18.782 c-0.875-5.068,0.5-10.063,3.867-14.063c2.977-3.534,7.19-5.707,11.799-6.355H192.62c17.578,0,24.075,1.677,36.297,13.477 l23.71,22.893c0.992,0.958,2.275,1.438,3.557,1.438c1.282,0,2.565-0.48,3.557-1.438l23.71-22.893 c12.22-11.8,18.718-13.477,36.298-13.477h52.539C376.898,331.563,381.11,333.736,384.087,337.27z M41.482,320.675v-27.891 c5.22,2.382,11.623,4.521,21.902,4.521c12.982,0,19.815-3.407,25.84-6.415c5.742-2.865,10.7-5.338,21.273-5.338 c10.573,0,15.53,2.473,21.273,5.338c6.028,3.008,12.858,6.415,25.843,6.415c12.987,0,19.82-3.407,25.847-6.415 c5.742-2.865,10.702-5.338,21.278-5.338c10.58,0,15.542,2.475,21.287,5.338c6.03,3.008,12.865,6.415,25.855,6.415 c12.99,0,19.822-3.407,25.85-6.415c5.742-2.865,10.703-5.338,21.278-5.338c10.585,0,15.547,2.475,21.295,5.338 c6.032,3.008,12.87,6.415,25.867,6.415c11.072,0,17.662-2.476,23.105-5.068v28.209c-0.397,0.024-0.768,0.12-1.136,0.229H319.75 c-19.865,0-28.925,2.362-43.412,16.352l-20.153,19.458l-20.155-19.458c-14.488-13.99-23.548-16.352-43.41-16.352H41.482z M388.427,275.487c-9.91,0.73-15.737,3.635-20.963,6.24c-5.747,2.862-10.71,5.338-21.295,5.338c-10.588,0-15.55-2.475-21.3-5.34 c-6.03-3.005-12.867-6.412-25.862-6.412c-12.988,0-19.82,3.407-25.848,6.415c-5.742,2.862-10.702,5.338-21.28,5.338 c-10.58,0-15.54-2.473-21.285-5.338c-6.03-3.008-12.865-6.415-25.857-6.415c-12.987,0-19.82,3.407-25.848,6.415 c-5.742,2.865-10.702,5.338-21.277,5.338c-10.573,0-15.53-2.473-21.273-5.338c-6.028-3.008-12.857-6.415-25.842-6.415 s-19.818,3.407-25.842,6.415c-5.742,2.865-10.7,5.338-21.27,5.338c-10.573,0-15.53-2.473-21.273-5.338 c-5.298-2.643-11.218-5.597-21.393-6.273c-0.39-6.072,0.798-18.168,14.285-26.087h340.536 C386.217,258.281,388.237,269.504,388.427,275.487z M399.36,218.158c0,11.562-9.828,20.97-21.905,20.97H32.145 c-12.078,0-21.905-9.408-21.905-20.97v-13.265c0-10.683,12.635-21.168,25.507-21.168h13.029c0.042,0,0.118,0.005,0.158,0.005 c0.14,0,0.217-0.003,0.328-0.005h311.011c0.211,0.003,0.44,0.004,0.717,0h12.791c11.585,0,25.578,9.443,25.578,21.168V218.158z"></path></g></g><g><g><path d="M158.215,104.078l-5.435-0.833c-2.768-0.425-5.407,1.49-5.835,4.285c-0.43,2.795,1.49,5.407,4.285,5.835l5.435,0.833 c0.263,0.04,0.523,0.06,0.782,0.06c2.485,0,4.665-1.813,5.053-4.345C162.93,107.118,161.01,104.505,158.215,104.078z"></path></g></g><g><g><path d="M85.867,103.635c-2.765-0.292-5.347,1.698-5.67,4.505l-0.65,5.682c-0.32,2.81,1.697,5.347,4.505,5.67 c0.197,0.022,0.395,0.033,0.59,0.033c2.565,0,4.78-1.927,5.08-4.538l0.65-5.682C90.692,106.495,88.675,103.958,85.867,103.635z"></path></g></g><g><g><path d="M116.29,108.397c-2.25-1.715-5.467-1.267-7.172,0.977l-3.463,4.555c-1.712,2.25-1.275,5.462,0.978,7.172 c0.925,0.705,2.013,1.045,3.092,1.045c1.547,0,3.075-0.698,4.08-2.023l3.462-4.555C118.98,113.32,118.542,110.107,116.29,108.397z "></path></g></g><g><g><path d="M147.21,126.075c-1.052-2.627-4.035-3.892-6.655-2.855l-5.128,2.05c-2.628,1.05-3.905,4.03-2.855,6.655 c0.802,2.003,2.725,3.222,4.758,3.222c0.633,0,1.275-0.12,1.898-0.367l5.127-2.05C146.982,131.68,148.26,128.7,147.21,126.075z"></path></g></g><g><g><path d="M157.997,57.753c-0.84-2.705-3.73-4.212-6.41-3.37l-5.465,1.7c-2.7,0.84-4.21,3.71-3.37,6.41 c0.682,2.195,2.705,3.602,4.888,3.602c0.505,0,1.018-0.075,1.522-0.232l5.465-1.7C157.327,63.323,158.837,60.453,157.997,57.753z"></path></g></g><g><g><path d="M114.953,56.445l-5.432-0.833c-2.768-0.407-5.408,1.488-5.835,4.285c-0.43,2.795,1.49,5.408,4.285,5.835l5.433,0.833 c0.262,0.04,0.522,0.06,0.782,0.06c2.485,0,4.665-1.812,5.052-4.345C119.667,59.485,117.748,56.873,114.953,56.445z"></path></g></g><g><g><path d="M170.037,34.695l-5.435-0.835c-2.768-0.422-5.41,1.485-5.838,4.283c-0.43,2.795,1.488,5.407,4.283,5.837l5.435,0.835 c0.263,0.04,0.525,0.06,0.785,0.06c2.482,0,4.665-1.81,5.052-4.342C174.75,37.738,172.832,35.125,170.037,34.695z"></path></g></g><g><g><path d="M137.713,29.4c-1.047-2.625-4.02-3.905-6.653-2.858l-5.13,2.047c-2.627,1.047-3.905,4.028-2.857,6.653 c0.8,2.005,2.722,3.225,4.758,3.225c0.63,0,1.273-0.12,1.895-0.367l5.13-2.047C137.482,35.005,138.76,32.025,137.713,29.4z"></path></g></g><g><g><path d="M57.095,102.203l-5.435-0.833c-2.763-0.425-5.408,1.49-5.835,4.285c-0.43,2.795,1.49,5.407,4.285,5.835l5.435,0.833 c0.263,0.04,0.522,0.06,0.782,0.06c2.485,0,4.665-1.813,5.053-4.345C61.81,105.243,59.89,102.63,57.095,102.203z"></path></g></g><g><g><path d="M105.268,80.45l-5.433-0.832c-2.77-0.42-5.407,1.487-5.835,4.285c-0.43,2.795,1.49,5.407,4.285,5.835l5.433,0.833 c0.263,0.04,0.523,0.06,0.782,0.06c2.485,0,4.665-1.813,5.053-4.345C109.982,83.49,108.062,80.878,105.268,80.45z"></path></g></g><g><g><path d="M159.937,76.767c-2.832-0.247-5.28,1.898-5.492,4.718l-0.425,5.61c-0.215,2.82,1.898,5.28,4.718,5.492 c0.133,0.01,0.263,0.015,0.393,0.015c2.653,0,4.897-2.045,5.1-4.733l0.425-5.61C164.87,79.44,162.757,76.98,159.937,76.767z"></path></g></g><g><g><path d="M65.667,49.37c-2.848-0.247-5.283,1.898-5.492,4.718l-0.425,5.61c-0.215,2.82,1.898,5.28,4.717,5.492 c0.133,0.01,0.263,0.015,0.393,0.015c2.653,0,4.897-2.045,5.1-4.732l0.425-5.61C70.6,52.042,68.488,49.582,65.667,49.37z"></path></g></g><g><g><path d="M139.518,82.17c-1.052-2.628-4.03-3.893-6.655-2.855l-5.127,2.05c-2.628,1.05-3.905,4.03-2.855,6.655 c0.802,2.003,2.725,3.222,4.758,3.222c0.633,0,1.275-0.12,1.898-0.367l5.127-2.05C139.29,87.775,140.568,84.795,139.518,82.17z"></path></g></g><g><g><path d="M43.68,78.34c-1.053-2.625-4.028-3.895-6.655-2.855l-5.128,2.05c-2.628,1.05-3.905,4.03-2.855,6.655 c0.802,2.003,2.725,3.223,4.758,3.223c0.633,0,1.275-0.12,1.898-0.367l5.127-2.05C43.452,83.945,44.73,80.965,43.68,78.34z"></path></g></g><g><g><path d="M80.63,79.365c-1.048-2.625-4.028-3.9-6.655-2.855l-5.13,2.05c-2.625,1.05-3.903,4.03-2.855,6.655 c0.8,2.003,2.725,3.222,4.758,3.222c0.633,0,1.275-0.12,1.898-0.367l5.13-2.05C80.4,84.97,81.678,81.99,80.63,79.365z"></path></g></g><g><g><path d="M100.763,36c-1.048-2.625-4.02-3.905-6.653-2.858l-5.128,2.047c-2.627,1.047-3.905,4.028-2.857,6.653 c0.8,2.005,2.722,3.225,4.758,3.225c0.63,0,1.273-0.12,1.895-0.367l5.127-2.047C100.532,41.605,101.81,38.625,100.763,36z"></path></g></g><g><g><path d="M269.497,103.5c-0.428-2.795-3.025-4.695-5.835-4.29l-5.435,0.83c-2.795,0.427-4.715,3.04-4.29,5.835 c0.387,2.535,2.57,4.347,5.055,4.347c0.257,0,0.517-0.018,0.78-0.057l5.435-0.83C268.003,108.908,269.922,106.295,269.497,103.5z"></path></g></g><g><g><path d="M329.575,113.822l-0.65-5.682c-0.323-2.807-2.875-4.802-5.67-4.505c-2.807,0.323-4.825,2.86-4.505,5.67l0.65,5.682 c0.3,2.61,2.515,4.537,5.08,4.537c0.195,0,0.393-0.01,0.59-0.033C327.877,119.17,329.895,116.632,329.575,113.822z"></path></g></g><g><g><path d="M373.737,84.55l-0.65-5.685c-0.323-2.81-2.878-4.845-5.67-4.505c-2.807,0.323-4.825,2.86-4.505,5.67l0.65,5.685 c0.3,2.61,2.513,4.538,5.08,4.538c0.195,0,0.393-0.01,0.59-0.033C372.04,89.897,374.057,87.36,373.737,84.55z"></path></g></g><g><g><path d="M312.757,63.765l-0.65-5.685c-0.325-2.807-2.885-4.815-5.67-4.505c-2.807,0.323-4.825,2.86-4.505,5.67l0.65,5.685 c0.3,2.61,2.513,4.537,5.08,4.537c0.195,0,0.393-0.01,0.59-0.033C311.06,69.112,313.077,66.575,312.757,63.765z"></path></g></g><g><g><path d="M303.465,113.93l-3.462-4.555c-1.71-2.25-4.92-2.695-7.173-0.978c-2.253,1.71-2.69,4.922-0.977,7.173l3.463,4.555 c1.008,1.325,2.532,2.023,4.08,2.023c1.078,0,2.167-0.34,3.092-1.045C304.74,119.393,305.177,116.18,303.465,113.93z"></path></g></g><g><g><path d="M273.693,124.245l-5.128-2.05c-2.627-1.053-5.605,0.227-6.655,2.855c-1.05,2.625,0.227,5.605,2.855,6.655l5.127,2.05 c0.622,0.247,1.265,0.367,1.898,0.367c2.032,0,3.955-1.22,4.758-3.222C277.597,128.275,276.32,125.295,273.693,124.245z"></path></g></g><g><g><path d="M220.495,40.027c-0.845-2.702-3.715-4.197-6.412-3.362l-5.46,1.705c-2.7,0.842-4.205,3.715-3.362,6.412 c0.685,2.193,2.705,3.598,4.885,3.598c0.508,0,1.02-0.078,1.527-0.235l5.46-1.705C219.833,45.597,221.338,42.725,220.495,40.027z"></path></g></g><g><g><path d="M241.83,30.083l-2.407-4.945c-1.235-2.545-4.31-3.6-6.843-2.363c-2.542,1.237-3.6,4.302-2.362,6.843l2.408,4.945 c0.885,1.823,2.707,2.88,4.605,2.88c0.752,0,1.518-0.165,2.237-0.518C242.01,35.688,243.067,32.623,241.83,30.083z"></path></g></g><g><g><path d="M260.887,45.527l-5.715-0.287c-2.768-0.145-5.228,2.03-5.37,4.855c-0.143,2.825,2.03,5.23,4.855,5.37l5.715,0.288 c0.088,0.005,0.175,0.007,0.263,0.007c2.708,0,4.97-2.128,5.107-4.862C265.885,48.072,263.712,45.667,260.887,45.527z"></path></g></g><g><g><path d="M269.78,22.132l-5.715-0.287c-2.798-0.148-5.228,2.03-5.37,4.855c-0.143,2.825,2.03,5.23,4.855,5.37l5.715,0.288 c0.088,0.005,0.175,0.007,0.263,0.007c2.708,0,4.97-2.128,5.108-4.862C274.777,24.677,272.605,22.272,269.78,22.132z"></path></g></g><g><g><path d="M237.388,56.7c-2.425-1.465-5.57-0.693-7.033,1.727l-2.86,4.727c-1.465,2.418-0.69,5.565,1.727,7.03 c0.83,0.503,1.745,0.74,2.648,0.74c1.732,0,3.422-0.878,4.385-2.467l2.86-4.728C240.58,61.313,239.805,58.165,237.388,56.7z"></path></g></g><g><g><path d="M198.277,108.665c-0.43-2.795-3.047-4.707-5.835-4.285l-5.435,0.833c-2.795,0.427-4.715,3.04-4.285,5.835 c0.388,2.533,2.568,4.345,5.053,4.345c0.26,0,0.52-0.02,0.782-0.06l5.435-0.833C196.787,114.072,198.707,111.46,198.277,108.665z"></path></g></g><g><g><path d="M217.898,81.205l-0.65-5.685c-0.322-2.807-2.872-4.83-5.67-4.505c-2.807,0.323-4.825,2.86-4.505,5.67l0.65,5.685 c0.3,2.61,2.513,4.537,5.08,4.537c0.195,0,0.393-0.01,0.59-0.033C216.2,86.553,218.218,84.015,217.898,81.205z"></path></g></g><g><g><path d="M188.767,59.54l-0.65-5.685c-0.325-2.81-2.89-4.84-5.67-4.505c-2.808,0.323-4.825,2.86-4.505,5.67l0.65,5.685 c0.3,2.61,2.513,4.537,5.08,4.537c0.195,0,0.393-0.01,0.59-0.032C187.07,64.888,189.087,62.35,188.767,59.54z"></path></g></g><g><g><path d="M193.59,89.67l-3.463-4.555c-1.708-2.245-4.917-2.695-7.172-0.978c-2.253,1.71-2.69,4.923-0.978,7.172l3.463,4.555 c1.008,1.325,2.533,2.022,4.08,2.022c1.078,0,2.167-0.34,3.092-1.045C194.865,95.133,195.302,91.92,193.59,89.67z"></path></g></g><g><g><path d="M228.55,103.323l-5.128-2.05c-2.633-1.05-5.605,0.227-6.655,2.855c-1.05,2.625,0.227,5.605,2.855,6.655l5.127,2.05 c0.622,0.247,1.265,0.367,1.898,0.367c2.032,0,3.955-1.22,4.758-3.222C232.455,107.352,231.178,104.372,228.55,103.323z"></path></g></g><g><g><path d="M363.295,105.655c-0.425-2.795-3.05-4.705-5.835-4.285l-5.435,0.833c-2.795,0.428-4.715,3.04-4.285,5.835 c0.388,2.532,2.567,4.345,5.052,4.345c0.26,0,0.52-0.02,0.782-0.06l5.435-0.833C361.805,111.062,363.725,108.45,363.295,105.655z"></path></g></g><g><g><path d="M315.12,83.902c-0.428-2.798-3.07-4.703-5.835-4.285l-5.433,0.832c-2.795,0.428-4.715,3.04-4.285,5.835 c0.387,2.533,2.568,4.345,5.052,4.345c0.26,0,0.52-0.02,0.782-0.06l5.433-0.833C313.63,89.31,315.55,86.697,315.12,83.902z"></path></g></g><g><g><path d="M251.29,81.485c-0.212-2.82-2.68-4.963-5.492-4.718c-2.82,0.212-4.933,2.672-4.718,5.492l0.425,5.61 c0.203,2.688,2.448,4.732,5.1,4.732c0.13,0,0.26-0.005,0.393-0.015c2.82-0.213,4.932-2.672,4.718-5.492L251.29,81.485z"></path></g></g><g><g><path d="M195.392,23.91c-0.212-2.82-2.647-4.965-5.492-4.718c-2.82,0.212-4.932,2.672-4.718,5.492l0.425,5.607 c0.203,2.688,2.448,4.732,5.1,4.732c0.13,0,0.26-0.005,0.393-0.015c2.82-0.213,4.932-2.672,4.718-5.492L195.392,23.91z"></path></g></g><g><g><path d="M278.823,74.19l-5.13-2.05c-2.625-1.042-5.61,0.227-6.655,2.855c-1.048,2.625,0.23,5.605,2.855,6.655l5.13,2.05 c0.622,0.247,1.265,0.367,1.898,0.367c2.033,0,3.958-1.22,4.758-3.222C282.725,78.22,281.447,75.24,278.823,74.19z"></path></g></g><g><g><path d="M290.68,39.843l-5.127-2.05c-2.625-1.045-5.602,0.227-6.655,2.855c-1.05,2.625,0.227,5.605,2.855,6.655l5.128,2.05 c0.622,0.247,1.265,0.367,1.898,0.367c2.032,0,3.955-1.22,4.758-3.222C294.585,43.873,293.307,40.893,290.68,39.843z"></path></g></g><g><g><path d="M321.257,31.777l-5.127-2.047c-2.635-1.05-5.605,0.23-6.653,2.858c-1.047,2.625,0.23,5.605,2.858,6.652l5.128,2.047 c0.622,0.247,1.265,0.367,1.895,0.367c2.035,0,3.958-1.22,4.758-3.225C325.162,35.805,323.885,32.825,321.257,31.777z"></path></g></g><g><g><path d="M340.275,78.56l-5.13-2.05c-2.625-1.052-5.605,0.227-6.655,2.855c-1.048,2.625,0.23,5.605,2.855,6.655l5.13,2.05 c0.622,0.248,1.265,0.368,1.898,0.368c2.033,0,3.958-1.22,4.758-3.222C344.177,82.59,342.9,79.61,340.275,78.56z"></path></g></g><g><g><path d="M348.78,50.708l-5.127-2.05c-2.633-1.05-5.605,0.227-6.655,2.855c-1.05,2.625,0.227,5.605,2.855,6.655l5.127,2.05 c0.622,0.247,1.265,0.368,1.898,0.368c2.032,0,3.955-1.22,4.757-3.223C352.685,54.738,351.407,51.758,348.78,50.708z"></path></g></g></svg>