<svg width="24" height="24" viewBox="0 0 24 24" fill="none" xmlns="http://www.w3.org/2000/svg">
<path d="M7.07264 16.7089C9.12831 17.8702 11.1368 18 12 18C15.7966 18 19.1 15.892 20.7994 12.7846C21.0669 12.2956 21.0669 11.7046 20.7994 11.2156C20 9.5 18 8 16.8069 7.22417C16.1178 6.84729 15.3795 6.54893 14.604 6.34114C13.7736 6.11865 12.9007 6 12 6C8.20336 6 4.9 8.10803 3.20058 11.2154C2.93314 11.7045 2.93314 12.2954 3.20057 12.7844C3.77677 13.838 4.53736 14.7768 5.43906 15.5574M7.07264 16.7089C6.4892 16.3793 5.94217 15.993 5.43906 15.5574M7.07264 16.7089L5.43906 15.5574" stroke="#717171" stroke-width="1.5"/>
<path d="M19.4648 4.46436L4.46484 19.4644" stroke="#717171" stroke-width="1.5" stroke-linecap="round" stroke-linejoin="round"/>
<path d="M9 12C9 10.3431 10.3431 9 12 9" stroke="#717171" stroke-width="1.5" stroke-linecap="round"/>
<path d="M15 12C15 13.6569 13.6569 15 12 15" stroke="#717171" stroke-width="1.5" stroke-linecap="round"/>
</svg>
