<svg width="24" height="24" viewBox="0 0 24 24" fill="none" xmlns="http://www.w3.org/2000/svg">
<path d="M7.48545 10.5C6.66448 10.5 6 11.1709 6 11.9998C6 12.8288 6.66373 13.5 7.48545 13.5C8.30491 13.5 8.97014 12.8299 8.97014 11.9998C8.97014 11.1709 8.30491 10.5 7.48545 10.5ZM12.0769 10.5C11.2578 10.5 10.5915 11.1705 10.5915 11.9994C10.5915 12.8284 11.2571 13.4996 12.0769 13.4996C12.8968 13.4996 13.5631 12.8295 13.5631 11.9994C13.5624 11.1709 12.8968 10.5 12.0769 10.5ZM16.5157 10.5C15.6951 10.5 15.0299 11.1709 15.0299 12.0002C15.0299 12.8284 15.694 13.4996 16.5157 13.4996C17.3348 13.4996 18 12.8295 18 12.0002C18 11.1709 17.3348 10.5 16.5157 10.5Z" fill="black"/>
</svg>
