<svg width="18" height="18" viewBox="0 0 18 18" fill="none" xmlns="http://www.w3.org/2000/svg">
<rect width="18" height="18" rx="3" fill="#E2DFF6"/>
<g clip-path="url(#clip0_4843_1345)">
<path d="M4.2002 11.8005V13.8002H6.19992L12.0978 7.90233L10.0981 5.9026L4.2002 11.8005ZM13.6442 6.35587C13.6937 6.30654 13.7329 6.24794 13.7597 6.18343C13.7864 6.11892 13.8002 6.04976 13.8002 5.97992C13.8002 5.91008 13.7864 5.84093 13.7597 5.77642C13.7329 5.71191 13.6937 5.65331 13.6442 5.60397L12.3964 4.35614C12.3471 4.30671 12.2885 4.26749 12.224 4.24073C12.1595 4.21397 12.0903 4.2002 12.0205 4.2002C11.9506 4.2002 11.8815 4.21397 11.817 4.24073C11.7525 4.26749 11.6939 4.30671 11.6445 4.35614L10.6686 5.33201L12.6684 7.33174L13.6442 6.35587Z" fill="#787486"/>
</g>
<defs>
<clipPath id="clip0_4843_1345">
<rect width="12" height="12" fill="white" transform="translate(3 3)"/>
</clipPath>
</defs>
</svg>
