<svg width="12" height="12" viewBox="0 0 12 12" fill="none" xmlns="http://www.w3.org/2000/svg">
<g clip-path="url(#clip0_4653_1311)">
<path d="M1.2002 8.80047V10.8002H3.19992L9.09779 4.90233L7.09806 2.9026L1.2002 8.80047ZM10.6442 3.35587C10.6937 3.30654 10.7329 3.24794 10.7597 3.18343C10.7864 3.11892 10.8002 3.04976 10.8002 2.97992C10.8002 2.91008 10.7864 2.84093 10.7597 2.77642C10.7329 2.71191 10.6937 2.65331 10.6442 2.60397L9.39642 1.35614C9.34708 1.30671 9.28848 1.26749 9.22397 1.24073C9.15946 1.21397 9.09031 1.2002 9.02047 1.2002C8.95063 1.2002 8.88147 1.21397 8.81696 1.24073C8.75245 1.26749 8.69385 1.30671 8.64452 1.35614L7.66865 2.33201L9.66838 4.33174L10.6442 3.35587Z" fill="black"/>
</g>
<defs>
<clipPath id="clip0_4653_1311">
<rect width="12" height="12" fill="white"/>
</clipPath>
</defs>
</svg>
