<svg width="22" height="22" viewBox="0 0 22 22" fill="none" xmlns="http://www.w3.org/2000/svg">
<rect width="22" height="22" rx="6" fill="#E2DFF6"/>
<circle cx="2.5148" cy="2.5148" r="2.5148" transform="matrix(-1 0 0 1 13.5146 5.5)" stroke="#787486" stroke-width="1.1"/>
<path d="M6.6001 14.2589C6.6001 13.718 6.94013 13.2355 7.44953 13.0535V13.0535C9.74614 12.2333 12.2559 12.2333 14.5525 13.0535V13.0535C15.0619 13.2355 15.4019 13.718 15.4019 14.2589V15.0859C15.4019 15.8325 14.7407 16.4059 14.0016 16.3004L13.7552 16.2652C11.9284 16.0042 10.0736 16.0042 8.24675 16.2652L8.00034 16.3004C7.26131 16.4059 6.6001 15.8325 6.6001 15.0859V14.2589Z" stroke="#787486" stroke-width="1.1"/>
</svg>
