<svg width="50" height="50" viewBox="0 0 50 50" fill="none" xmlns="http://www.w3.org/2000/svg">
<rect width="50" height="50" rx="25" fill="#E2DFF6"/>
<circle cx="6.2852" cy="6.2852" r="6.2852" transform="matrix(-1 0 0 1 31.2844 10.2944)" stroke="#787486" stroke-width="3"/>
<path d="M14.0017 33.83C14.0017 32.0427 15.1253 30.4484 16.8084 29.8472L23.3191 27.522C24.4066 27.1336 25.595 27.1336 26.6825 27.522L33.1932 29.8472C34.8764 30.4484 35.9999 32.0427 35.9999 33.83V33.83C35.9999 36.4036 33.7205 38.3805 31.1727 38.0165L25.7079 37.2359C25.2389 37.1689 24.7627 37.1689 24.2937 37.2359L18.8289 38.0165C16.2811 38.3805 14.0017 36.4036 14.0017 33.83V33.83Z" stroke="#787486" stroke-width="3"/>
</svg>
