<svg width="16" height="16" viewBox="0 0 16 16" fill="none" xmlns="http://www.w3.org/2000/svg">
<path d="M3.8226 5.3069C3.47624 4.81275 3.82974 4.1333 4.43318 4.1333H11.5668C12.1703 4.1333 12.5238 4.81275 12.1774 5.3069V5.3069C11.628 6.09067 11.3333 7.02458 11.3333 7.9817V12.1446C11.3333 12.973 10.6618 13.6446 9.83333 13.6446H6.16667C5.33824 13.6446 4.66667 12.973 4.66667 12.1446V7.9817C4.66667 7.02458 4.37196 6.09067 3.8226 5.3069V5.3069Z" stroke="#01020E"/>
<path d="M9.11133 10.6722L9.11133 7.10547" stroke="#01020E" stroke-linecap="round" stroke-linejoin="round"/>
<path d="M6.88965 10.6722L6.88965 7.10547" stroke="#01020E" stroke-linecap="round" stroke-linejoin="round"/>
<path d="M10.2228 4.13346L10.1049 3.75525C9.84457 2.91944 9.07088 2.3501 8.19545 2.3501H7.80563C6.9302 2.3501 6.15651 2.91944 5.89614 3.75525L5.77832 4.13346" stroke="#01020E" stroke-linecap="round"/>
</svg>
