<svg width="16" height="16" viewBox="0 0 16 16" fill="none" xmlns="http://www.w3.org/2000/svg">
<path d="M3.48545 6.5C2.66448 6.5 2 7.17087 2 7.99981C2 8.82875 2.66373 9.5 3.48545 9.5C4.30491 9.5 4.97014 8.82989 4.97014 7.99981C4.97014 7.17087 4.30491 6.5 3.48545 6.5ZM8.07693 6.5C7.25784 6.5 6.59148 7.17049 6.59148 7.99943C6.59148 8.82837 7.25709 9.49962 8.07693 9.49962C8.89677 9.49962 9.56313 8.82951 9.56313 7.99943C9.56238 7.17087 8.89677 6.5 8.07693 6.5ZM12.5157 6.5C11.6951 6.5 11.0299 7.17087 11.0299 8.00019C11.0299 8.82838 11.694 9.49962 12.5157 9.49962C13.3348 9.49962 14 8.82951 14 8.00019C14 7.17087 13.3348 6.5 12.5157 6.5Z" fill="#655B87"/>
</svg>
