<svg width="14" height="14" viewBox="0 0 14 14" fill="none" xmlns="http://www.w3.org/2000/svg">
<path fill-rule="evenodd" clip-rule="evenodd" d="M1.9585 3.79134V0.583008H0.583496V9.74967C0.583496 10.2359 0.77665 10.7022 1.12047 11.046C1.46428 11.3899 1.9306 11.583 2.41683 11.583H6.0835V12.2705C6.0835 12.903 6.59683 13.4163 7.22933 13.4163H12.271C12.9035 13.4163 13.4168 12.903 13.4168 12.2705V9.52051C13.4168 8.88801 12.9035 8.37467 12.271 8.37467H7.22933C6.59683 8.37467 6.0835 8.88801 6.0835 9.52051V10.208H2.41683C2.29527 10.208 2.17869 10.1597 2.09274 10.0738C2.00678 9.98781 1.9585 9.87123 1.9585 9.74967V5.16634H6.0835V5.85384C6.0835 6.48634 6.59683 6.99967 7.22933 6.99967H12.271C12.9035 6.99967 13.4168 6.48634 13.4168 5.85384V3.10384C13.4168 2.47134 12.9035 1.95801 12.271 1.95801H7.22933C6.59683 1.95801 6.0835 2.47134 6.0835 3.10384V3.79134H1.9585ZM7.4585 3.33301V5.62467H12.0418V3.33301H7.4585ZM7.4585 9.74967V12.0413H12.0418V9.74967H7.4585Z" fill="#01020E"/>
</svg>
