<svg width="20" height="20" viewBox="0 0 20 20" fill="none" xmlns="http://www.w3.org/2000/svg">
<rect width="20" height="20" rx="6" fill="#E2DFF6"/>
<circle cx="2.28618" cy="2.28618" r="2.28618" transform="matrix(-1 0 0 1 12.2864 5)" stroke="#787486" stroke-width="1.1"/>
<path d="M6 12.9627C6 12.471 6.30912 12.0323 6.77221 11.8669V11.8669C8.86004 11.1213 11.1416 11.1213 13.2294 11.8669V11.8669C13.6925 12.0323 14.0016 12.471 14.0016 12.9627V13.7146C14.0016 14.3933 13.4005 14.9146 12.7287 14.8186L12.5047 14.7866C10.8439 14.5493 9.15776 14.5493 7.49695 14.7866L7.27295 14.8186C6.6011 14.9146 6 14.3933 6 13.7146V12.9627Z" stroke="#787486" stroke-width="1.1"/>
</svg>
