<svg width="13" height="13" viewBox="0 0 13 13" fill="none" xmlns="http://www.w3.org/2000/svg">
<path d="M12.0037 12.9241C12.5496 13.0081 13 12.5523 13 12V6.5V1C13 0.447715 12.5496 -0.00808884 12.0037 0.0758744C8.88681 0.555308 6.5 3.24892 6.5 6.5C6.5 9.75108 8.88681 12.4447 12.0037 12.9241Z" fill="#5030E5"/>
<path d="M0.996276 12.9241C0.450411 13.0081 2.38419e-07 12.5523 2.38419e-07 12V6.5V1C2.38419e-07 0.447715 0.450412 -0.00808884 0.996277 0.0758744C4.11319 0.555308 6.5 3.24892 6.5 6.5C6.5 9.75108 4.11319 12.4447 0.996276 12.9241Z" fill="#5030E5"/>
</svg>
