<svg width="24" height="24" viewBox="0 0 24 24" fill="none" xmlns="http://www.w3.org/2000/svg">
<path d="M23.0003 23.959C23.5507 24.0043 24 23.5523 24 23V12V1C24 0.447715 23.5507 -0.00434557 23.0003 0.041049C16.8406 0.549057 12 5.70923 12 12C12 18.2908 16.8406 23.4509 23.0003 23.959Z" fill="#5030E5"/>
<path d="M0.999699 23.959C0.449283 24.0043 -4.76837e-07 23.5523 -4.76837e-07 23V12V1C-4.76837e-07 0.447715 0.449283 -0.00434557 0.999699 0.041049C7.15937 0.549057 12 5.70923 12 12C12 18.2908 7.15937 23.4509 0.999699 23.959Z" fill="#5030E5"/>
</svg>
