<svg width="170" height="29" viewBox="0 0 170 29" fill="none" xmlns="http://www.w3.org/2000/svg">
<path d="M23.0003 25.959C23.5507 26.0043 24 25.5523 24 25V14V3C24 2.44772 23.5507 1.99565 23.0003 2.04105C16.8406 2.54906 12 7.70923 12 14C12 20.2908 16.8406 25.4509 23.0003 25.959Z" fill="#5030E5"/>
<path d="M0.999699 25.959C0.449283 26.0043 -4.76837e-07 25.5523 -4.76837e-07 25V14V3C-4.76837e-07 2.44772 0.449283 1.99565 0.999699 2.04105C7.15937 2.54906 12 7.70923 12 14C12 20.2908 7.15937 25.4509 0.999699 25.959Z" fill="#5030E5"/>
<path d="M34.9545 8.19602V5.54545H48.8807V8.19602H43.4858V23H40.3494V8.19602H34.9545ZM55.326 23.2557C54.0135 23.2557 52.88 22.983 51.9254 22.4375C50.9766 21.8864 50.2464 21.108 49.7351 20.1023C49.2237 19.0909 48.968 17.9006 48.968 16.5312C48.968 15.1847 49.2237 14.0028 49.7351 12.9858C50.2521 11.9631 50.9737 11.1676 51.8999 10.5994C52.826 10.0256 53.9141 9.73864 55.1641 9.73864C55.9709 9.73864 56.7322 9.86932 57.4482 10.1307C58.1697 10.3864 58.8061 10.7841 59.3572 11.3239C59.9141 11.8636 60.3516 12.5511 60.6697 13.3864C60.9879 14.2159 61.147 15.2045 61.147 16.3523V17.2983H50.4169V15.2188H58.1896C58.1839 14.6278 58.0561 14.1023 57.8061 13.642C57.5561 13.1761 57.2067 12.8097 56.7578 12.5426C56.3146 12.2756 55.7976 12.142 55.2067 12.142C54.576 12.142 54.022 12.2955 53.5447 12.6023C53.0675 12.9034 52.6953 13.3011 52.4283 13.7955C52.1669 14.2841 52.0334 14.821 52.0277 15.4062V17.2216C52.0277 17.983 52.1669 18.6364 52.4453 19.1818C52.7237 19.7216 53.1129 20.1364 53.6129 20.4261C54.1129 20.7102 54.6982 20.8523 55.3686 20.8523C55.8175 20.8523 56.2237 20.7898 56.5874 20.6648C56.951 20.5341 57.2663 20.3438 57.5334 20.0938C57.8004 19.8438 58.0021 19.5341 58.1385 19.1648L61.0192 19.4886C60.8374 20.25 60.4908 20.9148 59.9794 21.483C59.4737 22.0455 58.826 22.483 58.0362 22.7955C57.2464 23.1023 56.343 23.2557 55.326 23.2557ZM67.5241 23.2642C66.6946 23.2642 65.9474 23.1165 65.2827 22.821C64.6236 22.5199 64.1009 22.0767 63.7145 21.4915C63.3338 20.9062 63.1435 20.1847 63.1435 19.3267C63.1435 18.5881 63.2798 17.9773 63.5526 17.4943C63.8253 17.0114 64.1974 16.625 64.669 16.3352C65.1406 16.0455 65.6719 15.8267 66.2628 15.679C66.8594 15.5256 67.4759 15.4148 68.1122 15.3466C68.8793 15.267 69.5014 15.196 69.9787 15.1335C70.456 15.0653 70.8026 14.9631 71.0185 14.8267C71.2401 14.6847 71.3509 14.4659 71.3509 14.1705V14.1193C71.3509 13.4773 71.1605 12.9801 70.7798 12.6278C70.3991 12.2756 69.8509 12.0994 69.1349 12.0994C68.3793 12.0994 67.7798 12.2642 67.3366 12.5938C66.8991 12.9233 66.6037 13.3125 66.4503 13.7614L63.5696 13.3523C63.7969 12.5568 64.1719 11.892 64.6946 11.358C65.2173 10.8182 65.8565 10.4148 66.6122 10.1477C67.3679 9.875 68.2031 9.73864 69.1179 9.73864C69.7486 9.73864 70.3764 9.8125 71.0014 9.96023C71.6264 10.108 72.1974 10.3523 72.7145 10.6932C73.2315 11.0284 73.6463 11.4858 73.9588 12.0653C74.277 12.6449 74.4361 13.3693 74.4361 14.2386V23H71.4702V21.2017H71.3679C71.1804 21.5653 70.9162 21.9062 70.5753 22.2244C70.2401 22.5369 69.8168 22.7898 69.3054 22.983C68.7997 23.1705 68.206 23.2642 67.5241 23.2642ZM68.3253 20.9972C68.9446 20.9972 69.4815 20.875 69.9361 20.6307C70.3906 20.3807 70.7401 20.0511 70.9844 19.642C71.2344 19.233 71.3594 18.7869 71.3594 18.304V16.7614C71.2628 16.8409 71.098 16.9148 70.8651 16.983C70.6378 17.0511 70.3821 17.1108 70.098 17.1619C69.8139 17.2131 69.5327 17.2585 69.2543 17.2983C68.9759 17.3381 68.7344 17.3722 68.5298 17.4006C68.0696 17.4631 67.6577 17.5653 67.294 17.7074C66.9304 17.8494 66.6435 18.0483 66.4332 18.304C66.223 18.554 66.1179 18.8778 66.1179 19.2756C66.1179 19.8438 66.3253 20.2727 66.7401 20.5625C67.1548 20.8523 67.6832 20.9972 68.3253 20.9972ZM77.5384 23V9.90909H80.4872V12.1335H80.6406C80.9134 11.3835 81.3651 10.7983 81.9957 10.3778C82.6264 9.9517 83.3793 9.73864 84.2543 9.73864C85.1406 9.73864 85.8878 9.95455 86.4957 10.3864C87.1094 10.8125 87.5412 11.3949 87.7912 12.1335H87.9276C88.2173 11.4062 88.706 10.8267 89.3935 10.3949C90.0866 9.95739 90.9077 9.73864 91.8565 9.73864C93.0611 9.73864 94.044 10.1193 94.8054 10.8807C95.5668 11.642 95.9474 12.7528 95.9474 14.2131V23H92.8537V14.6903C92.8537 13.8778 92.6378 13.2841 92.206 12.9091C91.7741 12.5284 91.2457 12.3381 90.6207 12.3381C89.8764 12.3381 89.294 12.571 88.8736 13.0369C88.4588 13.4972 88.2514 14.0966 88.2514 14.8352V23H85.2259V14.5625C85.2259 13.8864 85.0213 13.3466 84.6122 12.9432C84.2088 12.5398 83.6804 12.3381 83.027 12.3381C82.5838 12.3381 82.1804 12.4517 81.8168 12.679C81.4531 12.9006 81.1634 13.2159 80.9474 13.625C80.7315 14.0284 80.6236 14.5 80.6236 15.0398V23H77.5384ZM108.7 10.3438C108.62 9.59943 108.285 9.01989 107.694 8.60511C107.109 8.19034 106.347 7.98295 105.41 7.98295C104.751 7.98295 104.185 8.08239 103.714 8.28125C103.242 8.48011 102.881 8.75 102.631 9.09091C102.381 9.43182 102.254 9.82102 102.248 10.2585C102.248 10.6222 102.33 10.9375 102.495 11.2045C102.665 11.4716 102.896 11.6989 103.185 11.8864C103.475 12.0682 103.796 12.2216 104.148 12.3466C104.501 12.4716 104.856 12.5767 105.214 12.6619L106.85 13.071C107.509 13.2244 108.143 13.4318 108.751 13.6932C109.364 13.9545 109.913 14.2841 110.396 14.6818C110.884 15.0795 111.271 15.5597 111.555 16.1222C111.839 16.6847 111.981 17.3437 111.981 18.0994C111.981 19.1222 111.719 20.0227 111.197 20.8011C110.674 21.5739 109.918 22.179 108.93 22.6165C107.947 23.0483 106.756 23.2642 105.359 23.2642C104.001 23.2642 102.822 23.054 101.822 22.6335C100.827 22.2131 100.049 21.5994 99.4865 20.7926C98.9297 19.9858 98.6286 19.0028 98.5831 17.8438H101.694C101.739 18.4517 101.927 18.9574 102.256 19.3608C102.586 19.7642 103.015 20.0653 103.543 20.2642C104.077 20.4631 104.674 20.5625 105.333 20.5625C106.021 20.5625 106.623 20.4602 107.14 20.2557C107.663 20.0455 108.072 19.7557 108.367 19.3864C108.663 19.0114 108.813 18.5739 108.819 18.0739C108.813 17.6193 108.68 17.2443 108.418 16.9489C108.157 16.6477 107.79 16.3977 107.319 16.1989C106.853 15.9943 106.308 15.8125 105.683 15.6534L103.697 15.142C102.259 14.7727 101.123 14.2131 100.288 13.4631C99.4581 12.7074 99.0433 11.7045 99.0433 10.4545C99.0433 9.42614 99.3217 8.52557 99.8786 7.75284C100.441 6.98011 101.205 6.38068 102.171 5.95454C103.137 5.52273 104.231 5.30682 105.452 5.30682C106.691 5.30682 107.776 5.52273 108.708 5.95454C109.646 6.38068 110.381 6.97443 110.915 7.73579C111.45 8.49148 111.725 9.3608 111.742 10.3438H108.7ZM114.663 27.9091V9.90909H117.697V12.0739H117.876C118.036 11.7557 118.26 11.4176 118.55 11.0597C118.839 10.696 119.232 10.3864 119.726 10.1307C120.22 9.86932 120.851 9.73864 121.618 9.73864C122.629 9.73864 123.541 9.99716 124.354 10.5142C125.172 11.0256 125.82 11.7841 126.297 12.7898C126.78 13.7898 127.021 15.017 127.021 16.4716C127.021 17.9091 126.786 19.1307 126.314 20.1364C125.842 21.142 125.2 21.9091 124.388 22.4375C123.575 22.9659 122.655 23.2301 121.626 23.2301C120.876 23.2301 120.254 23.1051 119.76 22.8551C119.266 22.6051 118.868 22.304 118.567 21.9517C118.271 21.5937 118.041 21.2557 117.876 20.9375H117.749V27.9091H114.663ZM117.689 16.4545C117.689 17.3011 117.808 18.0426 118.047 18.679C118.291 19.3153 118.641 19.8125 119.095 20.1705C119.555 20.5227 120.112 20.6989 120.766 20.6989C121.447 20.6989 122.018 20.517 122.479 20.1534C122.939 19.7841 123.286 19.2812 123.518 18.6449C123.757 18.0028 123.876 17.2727 123.876 16.4545C123.876 15.642 123.76 14.9205 123.527 14.2898C123.294 13.6591 122.947 13.1648 122.487 12.8068C122.027 12.4489 121.453 12.2699 120.766 12.2699C120.107 12.2699 119.547 12.4432 119.087 12.7898C118.626 13.1364 118.277 13.6222 118.038 14.2472C117.805 14.8722 117.689 15.608 117.689 16.4545ZM133.43 23.2642C132.601 23.2642 131.854 23.1165 131.189 22.821C130.53 22.5199 130.007 22.0767 129.621 21.4915C129.24 20.9062 129.05 20.1847 129.05 19.3267C129.05 18.5881 129.186 17.9773 129.459 17.4943C129.732 17.0114 130.104 16.625 130.575 16.3352C131.047 16.0455 131.578 15.8267 132.169 15.679C132.766 15.5256 133.382 15.4148 134.018 15.3466C134.786 15.267 135.408 15.196 135.885 15.1335C136.362 15.0653 136.709 14.9631 136.925 14.8267C137.146 14.6847 137.257 14.4659 137.257 14.1705V14.1193C137.257 13.4773 137.067 12.9801 136.686 12.6278C136.305 12.2756 135.757 12.0994 135.041 12.0994C134.286 12.0994 133.686 12.2642 133.243 12.5938C132.805 12.9233 132.51 13.3125 132.357 13.7614L129.476 13.3523C129.703 12.5568 130.078 11.892 130.601 11.358C131.124 10.8182 131.763 10.4148 132.518 10.1477C133.274 9.875 134.109 9.73864 135.024 9.73864C135.655 9.73864 136.283 9.8125 136.908 9.96023C137.533 10.108 138.104 10.3523 138.621 10.6932C139.138 11.0284 139.553 11.4858 139.865 12.0653C140.183 12.6449 140.342 13.3693 140.342 14.2386V23H137.376V21.2017H137.274C137.087 21.5653 136.822 21.9062 136.482 22.2244C136.146 22.5369 135.723 22.7898 135.212 22.983C134.706 23.1705 134.112 23.2642 133.43 23.2642ZM134.232 20.9972C134.851 20.9972 135.388 20.875 135.842 20.6307C136.297 20.3807 136.646 20.0511 136.891 19.642C137.141 19.233 137.266 18.7869 137.266 18.304V16.7614C137.169 16.8409 137.004 16.9148 136.771 16.983C136.544 17.0511 136.288 17.1108 136.004 17.1619C135.72 17.2131 135.439 17.2585 135.161 17.2983C134.882 17.3381 134.641 17.3722 134.436 17.4006C133.976 17.4631 133.564 17.5653 133.2 17.7074C132.837 17.8494 132.55 18.0483 132.339 18.304C132.129 18.554 132.024 18.8778 132.024 19.2756C132.024 19.8438 132.232 20.2727 132.646 20.5625C133.061 20.8523 133.589 20.9972 134.232 20.9972ZM149.155 23.2557C147.848 23.2557 146.726 22.9688 145.788 22.3949C144.857 21.821 144.138 21.0284 143.632 20.017C143.132 19 142.882 17.8295 142.882 16.5057C142.882 15.1761 143.138 14.0028 143.649 12.9858C144.161 11.9631 144.882 11.1676 145.814 10.5994C146.751 10.0256 147.859 9.73864 149.138 9.73864C150.2 9.73864 151.141 9.93466 151.959 10.3267C152.783 10.7131 153.439 11.2614 153.928 11.9716C154.416 12.6761 154.695 13.5 154.763 14.4432H151.814C151.695 13.8125 151.411 13.2869 150.962 12.8665C150.518 12.4403 149.925 12.2273 149.18 12.2273C148.55 12.2273 147.996 12.3977 147.518 12.7386C147.041 13.0739 146.669 13.5568 146.402 14.1875C146.141 14.8182 146.01 15.5739 146.01 16.4545C146.01 17.3466 146.141 18.1136 146.402 18.7557C146.663 19.392 147.03 19.8835 147.501 20.2301C147.979 20.571 148.538 20.7415 149.18 20.7415C149.635 20.7415 150.041 20.6562 150.399 20.4858C150.763 20.3097 151.067 20.0568 151.311 19.7273C151.555 19.3977 151.723 18.9972 151.814 18.5256H154.763C154.689 19.4517 154.416 20.2727 153.945 20.9886C153.473 21.6989 152.831 22.2557 152.018 22.6591C151.206 23.0568 150.251 23.2557 149.155 23.2557ZM163.092 23.2557C161.779 23.2557 160.646 22.983 159.691 22.4375C158.742 21.8864 158.012 21.108 157.501 20.1023C156.989 19.0909 156.734 17.9006 156.734 16.5312C156.734 15.1847 156.989 14.0028 157.501 12.9858C158.018 11.9631 158.739 11.1676 159.665 10.5994C160.592 10.0256 161.68 9.73864 162.93 9.73864C163.737 9.73864 164.498 9.86932 165.214 10.1307C165.935 10.3864 166.572 10.7841 167.123 11.3239C167.68 11.8636 168.117 12.5511 168.435 13.3864C168.754 14.2159 168.913 15.2045 168.913 16.3523V17.2983H158.183V15.2188H165.955C165.95 14.6278 165.822 14.1023 165.572 13.642C165.322 13.1761 164.972 12.8097 164.523 12.5426C164.08 12.2756 163.563 12.142 162.972 12.142C162.342 12.142 161.788 12.2955 161.31 12.6023C160.833 12.9034 160.461 13.3011 160.194 13.7955C159.933 14.2841 159.799 14.821 159.793 15.4062V17.2216C159.793 17.983 159.933 18.6364 160.211 19.1818C160.489 19.7216 160.879 20.1364 161.379 20.4261C161.879 20.7102 162.464 20.8523 163.134 20.8523C163.583 20.8523 163.989 20.7898 164.353 20.6648C164.717 20.5341 165.032 20.3438 165.299 20.0938C165.566 19.8438 165.768 19.5341 165.904 19.1648L168.785 19.4886C168.603 20.25 168.256 20.9148 167.745 21.483C167.239 22.0455 166.592 22.483 165.802 22.7955C165.012 23.1023 164.109 23.2557 163.092 23.2557Z" fill="white"/>
</svg>
